<?xml version="1.0" encoding="UTF-8"?>
<svg width="50px" height="50px" viewBox="0 0 50 50" version="1.1" xmlns="http://www.w3.org/2000/svg" xmlns:xlink="http://www.w3.org/1999/xlink">
    <title>Group 4</title>
    <g id="Service-App" stroke="none" stroke-width="1" fill="none" fill-rule="evenodd">
        <g id="App-/-Dolgozom-(online)" transform="translate(-304, -42)">
            <g id="Group-4" transform="translate(304, 42)">
                <circle id="Oval" stroke="#1CCA8F" fill="#13B981" cx="25" cy="25" r="24.5"></circle>
                <g id="Icon-/-Terhelés" transform="translate(16, 16.01)" fill="#FFFFFF" fill-rule="nonzero">
                    <g id="noun-logout-6368434-(1)" transform="translate(0, -0)">
                        <path d="M3.60072494,17.4035039 L7.20144988,17.4035039 C7.69654955,17.4035039 8.10163111,16.9984223 8.10163111,16.5033226 C8.10163111,16.008223 7.69654955,15.6031414 7.20144988,15.6031414 L3.56771829,15.6031414 L3.4987044,15.5611329 C2.90758539,15.2130629 1.80036247,12.8425856 1.80036247,8.70175193 C1.80036247,4.56091825 2.90758539,2.190441 3.4987044,1.84237093 L3.56771829,1.80036247 L7.20144988,1.80036247 C7.69654955,1.80036247 8.10163111,1.39528091 8.10163111,0.900181234 C8.10163111,0.405081556 7.69654955,0 7.20144988,0 L3.60072494,0 C1.2362489,0 0,4.3778814 0,8.70175193 C0,13.0256225 1.2362489,17.4035039 3.60072494,17.4035039 Z" id="Path"></path>
                        <path d="M12.4435053,13.991817 C12.5995367,14.2258641 12.8365844,14.3728937 13.1096394,14.3998991 C13.3796937,14.4269046 13.6467475,14.3338859 13.8387862,14.1418472 L17.0554338,10.9251996 C17.4005033,10.5801301 17.652554,10.2050546 17.7995836,9.81197546 C18.22867,8.6747465 17.955615,7.39048794 17.1064441,6.53831637 L13.8387862,3.26765788 C13.6497481,3.07861982 13.3916962,2.98260049 13.1246424,3.00660532 C12.854588,3.03061016 12.6205409,3.16563734 12.4615089,3.39368325 C12.2154594,3.74175333 12.2814726,4.25485663 12.6145397,4.58792369 L15.8311873,7.8045713 L6.30426925,7.8045713 C5.80916957,7.8045713 5.40408801,8.20965286 5.40408801,8.70475254 C5.40408801,9.19985222 5.80916957,9.60493377 6.30426925,9.60493377 L15.8311873,9.60493377 C15.8311873,9.60493377 12.5905349,12.8455862 12.5905349,12.8455862 C12.2754714,13.1606496 12.2154594,13.6437469 12.4465059,13.991817 L12.4435053,13.991817 Z" id="Path"></path>
                    </g>
                </g>
            </g>
        </g>
    </g>
</svg>