<?xml version="1.0" encoding="UTF-8"?>
<svg width="325px" height="83px" viewBox="0 0 325 83" version="1.1" xmlns="http://www.w3.org/2000/svg" xmlns:xlink="http://www.w3.org/1999/xlink">
    <title>Group</title>
    <defs>
        <rect id="path-1" x="0" y="0" width="325" height="83" rx="41.5"></rect>
        <filter x="-1.4%" y="-5.4%" width="102.8%" height="110.8%" filterUnits="objectBoundingBox" id="filter-2">
            <feGaussianBlur stdDeviation="4" in="SourceAlpha" result="shadowBlurInner1"></feGaussianBlur>
            <feOffset dx="0" dy="1" in="shadowBlurInner1" result="shadowOffsetInner1"></feOffset>
            <feComposite in="shadowOffsetInner1" in2="SourceAlpha" operator="arithmetic" k2="-1" k3="1" result="shadowInnerInner1"></feComposite>
            <feColorMatrix values="0 0 0 0 0   0 0 0 0 0   0 0 0 0 0  0 0 0 0.194883653 0" type="matrix" in="shadowInnerInner1"></feColorMatrix>
        </filter>
    </defs>
    <g id="Service-App" stroke="none" stroke-width="1" fill="none" fill-rule="evenodd">
        <g id="App-/-Dolgozom-(online)" transform="translate(-25, -546)">
            <g id="Group" transform="translate(25, 546)">
                <g id="Rectangle-Copy-6">
                    <use fill="#136449" fill-rule="evenodd" xlink:href="#path-1"></use>
                    <use fill="#136449" fill-opacity="1" filter="url(#filter-2)" xlink:href="#path-1"></use>
                </g>
                <rect id="Rectangle-Copy-7" stroke="#1CCA8F" fill="#13B981" x="117.897849" y="4.96236559" width="203" height="73.0752688" rx="36.5376344"></rect>
                <g id="Dolgozom" transform="translate(190.3274, 34.7273)" fill="#FFFFFF" fill-rule="nonzero">
                    <path d="M5.4140625,15.2727273 L0,15.2727273 L0,-2.84217094e-14 L5.45880682,-2.84217094e-14 C6.99502841,-2.84217094e-14 8.31747159,0.304509943 9.42613636,0.91352983 C10.5348011,1.52254972 11.3886719,2.39630682 11.9877486,3.53480114 C12.5868253,4.67329545 12.8863636,6.03551136 12.8863636,7.62144886 C12.8863636,9.21235795 12.5868253,10.5795455 11.9877486,11.7230114 C11.3886719,12.8664773 10.5310724,13.7439631 9.41495028,14.3554687 C8.29882812,14.9669744 6.96519886,15.2727273 5.4140625,15.2727273 Z M3.2290483,12.5060369 L5.27982955,12.5060369 C6.234375,12.5060369 7.03852983,12.3357599 7.69229403,11.995206 C8.34605824,11.654652 8.83824574,11.1251776 9.16885653,10.4067827 C9.49946733,9.68838778 9.66477273,8.75994318 9.66477273,7.62144886 C9.66477273,6.49289773 9.49946733,5.57066761 9.16885653,4.85475852 C8.83824574,4.13884943 8.34730114,3.6118608 7.69602273,3.27379261 C7.04474432,2.93572443 6.24183239,2.76669034 5.28728693,2.76669034 L3.2290483,2.76669034 L3.2290483,12.5060369 Z" id="Shape"></path>
                    <path d="M20.3884943,15.4964489 C19.2301136,15.4964489 18.229581,15.2491122 17.3868963,14.7544389 C16.5442116,14.2597656 15.8941761,13.5687145 15.4367898,12.6812855 C14.9794034,11.7938565 14.7507102,10.7634943 14.7507102,9.59019886 C14.7507102,8.40696023 14.9794034,7.37162642 15.4367898,6.48419744 C15.8941761,5.59676847 16.5442116,4.90571733 17.3868963,4.41104403 C18.229581,3.91637074 19.2301136,3.66903409 20.3884943,3.66903409 C21.546875,3.66903409 22.5474077,3.91637074 23.3900923,4.41104403 C24.232777,4.90571733 24.8828125,5.59676847 25.3401989,6.48419744 C25.7975852,7.37162642 26.0262784,8.40696023 26.0262784,9.59019886 C26.0262784,10.7634943 25.7975852,11.7938565 25.3401989,12.6812855 C24.8828125,13.5687145 24.232777,14.2597656 23.3900923,14.7544389 C22.5474077,15.2491122 21.546875,15.4964489 20.3884943,15.4964489 Z M20.4034091,13.0355114 C20.9303977,13.0355114 21.3703835,12.8851207 21.7233665,12.5843395 C22.0763494,12.2835582 22.3435724,11.8721591 22.5250355,11.350142 C22.7064986,10.828125 22.7972301,10.2340199 22.7972301,9.5678267 C22.7972301,8.90163352 22.7064986,8.30752841 22.5250355,7.78551136 C22.3435724,7.26349432 22.0763494,6.85085227 21.7233665,6.54758523 C21.3703835,6.24431818 20.9303977,6.09268466 20.4034091,6.09268466 C19.8714489,6.09268466 19.4252486,6.24431818 19.0648082,6.54758523 C18.7043679,6.85085227 18.4334162,7.26349432 18.2519531,7.78551136 C18.0704901,8.30752841 17.9797585,8.90163352 17.9797585,9.5678267 C17.9797585,10.2340199 18.0704901,10.828125 18.2519531,11.350142 C18.4334162,11.8721591 18.7043679,12.2835582 19.0648082,12.5843395 C19.4252486,12.8851207 19.8714489,13.0355114 20.4034091,13.0355114 Z" id="Shape"></path>
                    <polygon id="Path" points="31.2762784 -2.84217094e-14 31.2762784 15.2727273 28.0994318 15.2727273 28.0994318 -2.84217094e-14"></polygon>
                    <path d="M38.9723011,19.7322443 C37.9431818,19.7322443 37.0619673,19.5930398 36.3286577,19.3146307 C35.595348,19.0362216 35.012429,18.6608665 34.5799006,18.1885653 C34.1473722,17.7162642 33.8664773,17.1917614 33.7372159,16.6150568 L36.6754261,16.2198153 C36.7649148,16.4286222 36.9066051,16.6262429 37.1004972,16.8126776 C37.2943892,16.9991122 37.551669,17.1519886 37.8723366,17.2713068 C38.1930043,17.390625 38.584517,17.4502841 39.046875,17.4502841 C39.7379261,17.4502841 40.3084162,17.2862216 40.7583452,16.9580966 C41.2082741,16.6299716 41.4332386,16.090554 41.4332386,15.3398437 L41.4332386,13.2443182 L41.2990057,13.2443182 C41.1598011,13.5625 40.9509943,13.8632812 40.6725852,14.1466619 C40.3941761,14.4300426 40.0362216,14.6612216 39.5987216,14.8401989 C39.1612216,15.0191761 38.6392045,15.1086648 38.0326705,15.1086648 C37.1725852,15.1086648 36.3908026,14.9085582 35.6873224,14.5083452 C34.9838423,14.1081321 34.4245384,13.4941406 34.0094105,12.6663707 C33.5942827,11.8386009 33.3867188,10.7908381 33.3867188,9.52308239 C33.3867188,8.22549716 33.5980114,7.14169034 34.0205966,6.27166193 C34.4431818,5.40163352 35.0062145,4.75035511 35.7096946,4.3178267 C36.4131747,3.8852983 37.1850142,3.66903409 38.0252131,3.66903409 C38.6665483,3.66903409 39.2034801,3.77716619 39.6360085,3.9934304 C40.0685369,4.2096946 40.4177912,4.47816051 40.6837713,4.79882812 C40.9497514,5.11949574 41.1548295,5.43394886 41.2990057,5.7421875 L41.4183239,5.7421875 L41.4183239,3.81818182 L44.5727983,3.81818182 L44.5727983,15.3845881 C44.5727983,16.3391335 44.3341619,17.1383168 43.8568892,17.7821378 C43.3796165,18.4259588 42.7196378,18.9119318 41.8769531,19.2400568 C41.0342685,19.5681818 40.0660511,19.7322443 38.9723011,19.7322443 Z M39.0394176,12.7223011 C39.5514915,12.7223011 39.9852628,12.5942827 40.3407315,12.3382457 C40.6962003,12.0822088 40.9696378,11.7143111 41.161044,11.2345526 C41.3524503,10.754794 41.4481534,10.1793324 41.4481534,9.50816761 C41.4481534,8.83700284 41.3536932,8.25408381 41.1647727,7.75941051 C40.9758523,7.26473722 40.7024148,6.88068182 40.3444602,6.60724432 C39.9865057,6.33380682 39.5514915,6.19708807 39.0394176,6.19708807 C38.5174006,6.19708807 38.0774148,6.33753551 37.7194602,6.6184304 C37.3615057,6.89932528 37.090554,7.28835227 36.9066051,7.78551136 C36.7226562,8.28267045 36.6306818,8.8568892 36.6306818,9.50816761 C36.6306818,10.1693892 36.7238991,10.7398793 36.9103338,11.2196378 C37.0967685,11.6993963 37.3677202,12.0697798 37.7231889,12.3307884 C38.0786577,12.5917969 38.5174006,12.7223011 39.0394176,12.7223011 Z" id="Shape"></path>
                    <path d="M52.2837358,15.4964489 C51.1253551,15.4964489 50.1248224,15.2491122 49.2821378,14.7544389 C48.4394531,14.2597656 47.7894176,13.5687145 47.3320313,12.6812855 C46.8746449,11.7938565 46.6459517,10.7634943 46.6459517,9.59019886 C46.6459517,8.40696023 46.8746449,7.37162642 47.3320313,6.48419744 C47.7894176,5.59676847 48.4394531,4.90571733 49.2821378,4.41104403 C50.1248224,3.91637074 51.1253551,3.66903409 52.2837358,3.66903409 C53.4421165,3.66903409 54.4426491,3.91637074 55.2853338,4.41104403 C56.1280185,4.90571733 56.778054,5.59676847 57.2354403,6.48419744 C57.6928267,7.37162642 57.9215199,8.40696023 57.9215199,9.59019886 C57.9215199,10.7634943 57.6928267,11.7938565 57.2354403,12.6812855 C56.778054,13.5687145 56.1280185,14.2597656 55.2853338,14.7544389 C54.4426491,15.2491122 53.4421165,15.4964489 52.2837358,15.4964489 Z M52.2986506,13.0355114 C52.8256392,13.0355114 53.265625,12.8851207 53.618608,12.5843395 C53.9715909,12.2835582 54.2388139,11.8721591 54.420277,11.350142 C54.6017401,10.828125 54.6924716,10.2340199 54.6924716,9.5678267 C54.6924716,8.90163352 54.6017401,8.30752841 54.420277,7.78551136 C54.2388139,7.26349432 53.9715909,6.85085227 53.618608,6.54758523 C53.265625,6.24431818 52.8256392,6.09268466 52.2986506,6.09268466 C51.7666903,6.09268466 51.3204901,6.24431818 50.9600497,6.54758523 C50.5996094,6.85085227 50.3286577,7.26349432 50.1471946,7.78551136 C49.9657315,8.30752841 49.875,8.90163352 49.875,9.5678267 C49.875,10.2340199 49.9657315,10.828125 50.1471946,11.350142 C50.3286577,11.8721591 50.5996094,12.2835582 50.9600497,12.5843395 C51.3204901,12.8851207 51.7666903,13.0355114 52.2986506,13.0355114 Z" id="Shape"></path>
                    <polygon id="Path" points="59.9350142 15.2727273 59.9350142 13.3785511 65.5429688 6.43572443 65.5429688 6.35369318 60.1289063 6.35369318 60.1289063 3.81818182 69.368608 3.81818182 69.368608 5.88387784 64.1036932 12.6551847 64.1036932 12.7372159 69.5625 12.7372159 69.5625 15.2727273"></polygon>
                    <path d="M77.1764915,15.4964489 C76.0181108,15.4964489 75.0175781,15.2491122 74.1748935,14.7544389 C73.3322088,14.2597656 72.6821733,13.5687145 72.2247869,12.6812855 C71.7674006,11.7938565 71.5387074,10.7634943 71.5387074,9.59019886 C71.5387074,8.40696023 71.7674006,7.37162642 72.2247869,6.48419744 C72.6821733,5.59676847 73.3322088,4.90571733 74.1748935,4.41104403 C75.0175781,3.91637074 76.0181108,3.66903409 77.1764915,3.66903409 C78.3348722,3.66903409 79.3354048,3.91637074 80.1780895,4.41104403 C81.0207741,4.90571733 81.6708097,5.59676847 82.128196,6.48419744 C82.5855824,7.37162642 82.8142756,8.40696023 82.8142756,9.59019886 C82.8142756,10.7634943 82.5855824,11.7938565 82.128196,12.6812855 C81.6708097,13.5687145 81.0207741,14.2597656 80.1780895,14.7544389 C79.3354048,15.2491122 78.3348722,15.4964489 77.1764915,15.4964489 Z M77.1914063,13.0355114 C77.7183949,13.0355114 78.1583807,12.8851207 78.5113636,12.5843395 C78.8643466,12.2835582 79.1315696,11.8721591 79.3130327,11.350142 C79.4944957,10.828125 79.5852273,10.2340199 79.5852273,9.5678267 C79.5852273,8.90163352 79.4944957,8.30752841 79.3130327,7.78551136 C79.1315696,7.26349432 78.8643466,6.85085227 78.5113636,6.54758523 C78.1583807,6.24431818 77.7183949,6.09268466 77.1914063,6.09268466 C76.659446,6.09268466 76.2132457,6.24431818 75.8528054,6.54758523 C75.4923651,6.85085227 75.2214134,7.26349432 75.0399503,7.78551136 C74.8584872,8.30752841 74.7677557,8.90163352 74.7677557,9.5678267 C74.7677557,10.2340199 74.8584872,10.828125 75.0399503,11.350142 C75.2214134,11.8721591 75.4923651,12.2835582 75.8528054,12.5843395 C76.2132457,12.8851207 76.659446,13.0355114 77.1914063,13.0355114 Z" id="Shape"></path>
                    <path d="M84.887429,15.2727273 L84.887429,3.81818182 L87.9151278,3.81818182 L87.9151278,5.83913352 L88.0493608,5.83913352 C88.2879972,5.16796875 88.6857244,4.63849432 89.2425426,4.25071023 C89.7993608,3.86292614 90.465554,3.66903409 91.2411222,3.66903409 C92.0266335,3.66903409 92.6953125,3.86416903 93.2471591,4.25443892 C93.7990057,4.64470881 94.1669034,5.17294034 94.3508523,5.83913352 L94.4701705,5.83913352 C94.7038352,5.18288352 95.1276634,4.65713778 95.7416548,4.26189631 C96.3556463,3.86665483 97.0827415,3.66903409 97.9229403,3.66903409 C98.9918324,3.66903409 99.8606179,4.00834517 100.529297,4.68696733 C101.197976,5.36558949 101.532315,6.32634943 101.532315,7.56924716 L101.532315,15.2727273 L98.3629261,15.2727273 L98.3629261,8.19566761 C98.3629261,7.55930398 98.193892,7.08203125 97.8558239,6.76384943 C97.5177557,6.44566761 97.0951705,6.2865767 96.5880682,6.2865767 C96.0113636,6.2865767 95.5614347,6.46928267 95.2382813,6.8346946 C94.9151278,7.20010653 94.7535511,7.68110795 94.7535511,8.27769886 L94.7535511,15.2727273 L91.6736506,15.2727273 L91.6736506,8.12855114 C91.6736506,7.56676136 91.5133168,7.11931818 91.1926491,6.78622159 C90.8719815,6.453125 90.4506392,6.2865767 89.9286222,6.2865767 C89.5756392,6.2865767 89.2587003,6.37482244 88.9778054,6.55131392 C88.6969105,6.7278054 88.4744318,6.97389915 88.3103693,7.28959517 C88.1463068,7.60529119 88.0642756,7.97443182 88.0642756,8.39701705 L88.0642756,15.2727273 L84.887429,15.2727273 Z" id="Path"></path>
                </g>
                <g id="Icon-/-Service-Copy-4" transform="translate(149.5, 28.5)" fill="#FFFFFF" fill-rule="nonzero">
                    <g id="noun-mechanic-4519626">
                        <path d="M4.21875,8.859375 L4.21875,5.0625 C4.21875,4.59650974 4.59650974,4.21875 5.0625,4.21875 L8.78765625,4.21875 C9.67749648,4.2363746 10.4368778,3.57897255 10.546875,2.69578125 C10.5934445,2.22047735 10.4364343,1.74769835 10.1147793,1.39468197 C9.7931243,1.04166559 9.33694943,0.841474051 8.859375,0.843730803 L5.0625,0.843730803 C2.73254871,0.843730803 0.84375,2.73254871 0.84375,5.0625 L0.84375,8.78765625 C0.826125399,9.67749648 1.48352745,10.4368778 2.36671875,10.546875 C2.84202265,10.5934445 3.31480165,10.4364343 3.66781803,10.1147793 C4.02083441,9.7931243 4.22102595,9.33694943 4.21875,8.859375 Z" id="Path"></path>
                        <path d="M24.3042187,16.453125 C23.4210275,16.5631222 22.7636254,17.3225035 22.78125,18.2123438 L22.78125,21.9375 C22.78125,22.4034903 22.4034903,22.78125 21.9375,22.78125 L18.2123437,22.78125 C17.3225035,22.7636254 16.5631222,23.4210275 16.453125,24.3042188 C16.4065555,24.7795227 16.5635657,25.2523017 16.8852207,25.605318 C17.2068757,25.9583344 17.6630506,26.1585259 18.140625,26.1562692 L21.9375,26.1562692 C24.2674513,26.1562692 26.1562692,24.2674513 26.1562692,21.9375 L26.1562692,18.140625 C26.1585259,17.6630506 25.9583344,17.2068757 25.605318,16.8852207 C25.2523017,16.5635657 24.7795227,16.4065555 24.3042187,16.453125 Z" id="Path"></path>
                        <path d="M25.3125,4.21875 C24.3805195,4.21875 23.625,4.97426948 23.625,5.90625 C23.625,7.30422077 22.4917208,8.4375 21.09375,8.4375 C19.6957792,8.4375 18.5625,7.30422077 18.5625,5.90625 C18.5625,4.50827923 19.6957792,3.375 21.09375,3.375 C22.0257305,3.375 22.78125,2.61948052 22.78125,1.6875 C22.78125,0.755519485 22.0257305,0 21.09375,0 C19.0133083,0.000653511885 17.0866467,1.09581534 16.0217436,2.88305331 C14.9568404,4.67029128 14.9107727,6.88598119 15.9004687,8.7159375 L13.5,11.1121875 L11.1121875,13.5 L8.71171875,15.9004687 C6.8820694,14.9128573 4.66789997,14.9600282 2.88197192,16.0246662 C1.09604387,17.0893041 0.0014553202,19.0145697 0,21.09375 C0,22.0257305 0.755519485,22.78125 1.6875,22.78125 C2.61948052,22.78125 3.375,22.0257305 3.375,21.09375 C3.375,19.6957792 4.50827923,18.5625 5.90625,18.5625 C7.30422077,18.5625 8.4375,19.6957792 8.4375,21.09375 C8.4375,22.4917208 7.30422077,23.625 5.90625,23.625 C4.97426948,23.625 4.21875,24.3805195 4.21875,25.3125 C4.21875,26.2444805 4.97426948,27 5.90625,27 C7.98669175,26.9993465 9.91335326,25.9041847 10.9782564,24.1169467 C12.0431596,22.3297087 12.0892273,20.1140188 11.0995313,18.2840625 L13.5,15.8878125 L15.8878125,13.5 L18.2882813,11.0995313 C20.1179306,12.0871427 22.3321,12.0399718 24.1180281,10.9753338 C25.9039561,9.91069585 26.9985447,7.98543035 27,5.90625 C27,4.97426948 26.2444805,4.21875 25.3125,4.21875 Z" id="Path"></path>
                    </g>
                </g>
                <g id="Icon-/-Service-Copy-5" transform="translate(48.6718, 28.5)" fill="#13B981" fill-rule="nonzero">
                    <g id="noun-midnight-6154038" transform="translate(0, 0)">
                        <path d="M0.554135946,20.1881853 C3.1422719,24.4161204 7.74697977,26.9893395 12.7041717,26.9779491 C13.1278914,26.9779491 13.5516112,26.9779491 13.9753309,26.9217556 C20.8438187,26.2596521 26.2800723,20.8233984 26.9421758,13.9549107 C27.4283696,8.56548705 24.8196289,3.36580601 20.2086056,0.533715717 C19.1027497,-0.149748458 17.7129651,-0.178746025 16.5795633,0.457996508 C15.4461616,1.09473904 14.7479614,2.29676179 14.7564046,3.59674994 C14.7311335,9.74459403 9.74464027,14.7174006 3.59674994,14.7257743 C2.29676179,14.7173311 1.09473904,15.4155313 0.457996508,16.548933 C-0.178746025,17.6823347 -0.149748458,19.0721193 0.533715717,20.1779752 L0.554135946,20.1881853 Z M3.61717017,17.7990186 C11.4601798,17.7821277 17.8092469,11.4193575 17.8092287,3.57632971 L17.8092287,3.57632971 C17.8099949,3.39220216 17.9098552,3.22275427 18.0705631,3.13288475 C18.2312709,3.04301523 18.4279215,3.04665112 18.5851974,3.14239987 L18.5851974,3.14239987 C22.2221178,5.36517848 24.2821841,9.45958508 23.8995618,13.7047629 C23.378165,19.0941117 19.1142697,23.3601465 13.7251831,23.8842466 C13.3933544,23.914877 13.0513156,23.9301969 12.7041717,23.9301969 C8.80808374,23.9337737 5.19192044,21.9060909 3.16282009,18.5800924 L3.16282009,18.5800924 C3.05877552,18.4221484 3.05057964,18.2196245 3.14152131,18.0537897 C3.23246298,17.8879549 3.40763722,17.7859888 3.59674994,17.7888085 L3.61717017,17.7990186 Z" id="Shape"></path>
                        <path d="M0.783863512,4.03578485 L2.24390983,4.76580801 L2.97393298,6.22585432 C3.07605997,6.42969892 3.28451969,6.55841848 3.5125165,6.55841848 C3.74051331,6.55841848 3.94897303,6.42969892 4.05110002,6.22585432 L4.78112318,4.76580801 L6.24116949,4.03578485 C6.4450141,3.93365786 6.57373365,3.72519814 6.57373365,3.49720133 C6.57373365,3.26920452 6.4450141,3.0607448 6.24116949,2.95861781 L4.78112318,2.22859466 L4.05110002,0.768548341 C3.94897303,0.564703737 3.74051331,0.43598418 3.5125165,0.43598418 C3.28451969,0.43598418 3.07605997,0.564703737 2.97393298,0.768548341 L2.24390983,2.22859466 L0.783863512,2.95861781 C0.580018908,3.0607448 0.451299351,3.26920452 0.451299351,3.49720133 C0.451299351,3.72519814 0.580018908,3.93365786 0.783863512,4.03578485 L0.783863512,4.03578485 Z" id="Path"></path>
                    </g>
                </g>
            </g>
        </g>
    </g>
</svg>