<?xml version="1.0" encoding="utf-8" ?>
<svg xmlns="http://www.w3.org/2000/svg" xmlns:xlink="http://www.w3.org/1999/xlink" width="24" height="24">
	<path fill="none" stroke="white" stroke-width="2" stroke-linecap="round" stroke-miterlimit="10" transform="translate(9.5 7)" d="M0 5.5L4.8137083 10.313708M4.8137083 -1.3322676e-15L4.7073456e-13 5.5" fill-rule="evenodd"/>
	<path fill-opacity="0.082352944" d="M24 12Q24 12.294583 23.985544 12.588813Q23.97109 12.883041 23.942217 13.176207Q23.913342 13.469372 23.870117 13.760765Q23.826893 14.05216 23.769421 14.341084Q23.71195 14.630007 23.640373 14.915763Q23.568794 15.201517 23.483284 15.483417Q23.39777 15.765314 23.298527 16.042677Q23.199284 16.32004 23.086552 16.592199Q22.97382 16.864359 22.84787 17.130661Q22.72192 17.396961 22.583054 17.656761Q22.444187 17.916561 22.29274 18.169233Q22.141294 18.421906 21.977633 18.666842Q21.813971 18.911779 21.638489 19.14839Q21.463005 19.385002 21.276125 19.612719Q21.089245 19.840433 20.891415 20.058704Q20.693584 20.276978 20.485281 20.485279Q20.276979 20.693581 20.058708 20.891413Q19.840437 21.089243 19.612722 21.276125Q19.385006 21.463005 19.148394 21.638487Q18.911781 21.813971 18.666843 21.977633Q18.421906 22.141294 18.169233 22.292742Q17.916561 22.444187 17.656763 22.583054Q17.396961 22.72192 17.130661 22.84787Q16.864361 22.97382 16.592201 23.086552Q16.320042 23.199284 16.042679 23.298527Q15.765315 23.39777 15.483418 23.483284Q15.201518 23.568794 14.915762 23.640373Q14.630007 23.71195 14.341084 23.769421Q14.05216 23.826893 13.760766 23.870115Q13.469372 23.913342 13.176207 23.942217Q12.883041 23.97109 12.588812 23.985546Q12.294583 24 12 24Q11.705416 24 11.411186 23.985544Q11.116959 23.97109 10.823793 23.942217Q10.530628 23.913342 10.239233 23.870117Q9.9478378 23.826893 9.6589146 23.769421Q9.3699913 23.71195 9.0842361 23.640373Q8.7984819 23.568794 8.5165834 23.483284Q8.234684 23.39777 7.9573212 23.298527Q7.6799579 23.199284 7.4077983 23.086552Q7.1356392 22.97382 6.8693385 22.84787Q6.6030383 22.72192 6.3432388 22.583054Q6.0834394 22.444187 5.8307667 22.29274Q5.578094 22.141294 5.3331566 21.977633Q5.0882196 21.813971 4.8516078 21.638489Q4.614996 21.463005 4.3872805 21.276125Q4.159564 21.089245 3.9412923 20.891415Q3.7230206 20.693584 3.5147185 20.485281Q3.3064165 20.276979 3.1085865 20.058708Q2.9107563 19.840437 2.7238746 19.612722Q2.5369925 19.385006 2.3615096 19.148394Q2.1860261 18.911781 2.0223644 18.666843Q1.8587027 18.421906 1.7072564 18.169233Q1.5558105 17.916561 1.4169447 17.656763Q1.278079 17.396961 1.1521285 17.130661Q1.0261778 16.864361 0.91344553 16.592201Q0.8007133 16.320042 0.70147121 16.042679Q0.602229 15.765315 0.51671594 15.483418Q0.43120289 15.201518 0.35962492 14.915762Q0.28804699 14.630007 0.2305766 14.341084Q0.17310622 14.05216 0.12988187 13.760766Q0.086657502 13.469372 0.057783276 13.176207Q0.028909048 12.883041 0.014454524 12.588812Q0 12.294583 0 12Q0 11.705416 0.014454524 11.411186Q0.028909048 11.116959 0.057783276 10.823793Q0.086657502 10.530628 0.12988186 10.239233Q0.17310622 9.9478378 0.2305766 9.6589146Q0.28804699 9.3699913 0.35962492 9.0842361Q0.43120289 8.7984819 0.51671594 8.5165834Q0.602229 8.234684 0.70147115 7.9573212Q0.8007133 7.6799579 0.91344553 7.4077983Q1.0261778 7.1356392 1.1521285 6.8693385Q1.2780792 6.6030383 1.4169449 6.3432388Q1.5558106 6.0834394 1.7072568 5.8307667Q1.8587029 5.578094 2.0223646 5.3331566Q2.1860266 5.0882196 2.3615096 4.8516078Q2.5369928 4.614996 2.7238746 4.3872805Q2.9107563 4.159564 3.1085863 3.9412923Q3.3064165 3.7230206 3.5147185 3.5147185Q3.7230206 3.3064165 3.9412923 3.1085865Q4.159564 2.9107563 4.3872805 2.7238746Q4.614996 2.5369925 4.8516078 2.3615096Q5.0882196 2.1860261 5.3331566 2.0223644Q5.578094 1.8587027 5.8307667 1.7072564Q6.0834398 1.5558105 6.3432398 1.4169447Q6.6030388 1.278079 6.869339 1.1521285Q7.1356392 1.0261778 7.4077983 0.91344553Q7.6799579 0.8007133 7.9573212 0.70147121Q8.234684 0.602229 8.5165834 0.51671594Q8.7984819 0.43120289 9.0842371 0.35962492Q9.3699923 0.28804699 9.6589155 0.2305766Q9.9478378 0.17310622 10.239233 0.12988187Q10.530628 0.086657502 10.823793 0.057783276Q11.116959 0.028909048 11.411186 0.014454524Q11.705416 0 12 0Q12.294583 0 12.588813 0.014454524Q12.883041 0.028909048 13.176207 0.057783276Q13.469372 0.086657502 13.760765 0.12988186Q14.05216 0.17310622 14.341084 0.2305766Q14.630007 0.28804699 14.915763 0.35962492Q15.201517 0.43120289 15.483417 0.51671594Q15.765314 0.602229 16.042677 0.70147115Q16.32004 0.8007133 16.592199 0.91344553Q16.864359 1.0261778 17.130661 1.1521285Q17.396961 1.2780792 17.656761 1.4169449Q17.916561 1.5558106 18.169233 1.7072568Q18.421906 1.8587029 18.666842 2.0223646Q18.911779 2.1860266 19.14839 2.3615096Q19.385002 2.5369928 19.612719 2.7238746Q19.840433 2.9107563 20.058704 3.1085863Q20.276978 3.3064165 20.485279 3.5147185Q20.693581 3.7230206 20.891413 3.9412923Q21.089243 4.159564 21.276125 4.3872805Q21.463005 4.614996 21.638487 4.8516078Q21.813971 5.0882196 21.977633 5.3331566Q22.141294 5.578094 22.292742 5.8307667Q22.444187 6.0834398 22.583054 6.3432398Q22.72192 6.6030388 22.84787 6.869339Q22.97382 7.1356392 23.086552 7.4077983Q23.199284 7.6799579 23.298527 7.9573212Q23.39777 8.234684 23.483284 8.5165834Q23.568794 8.7984819 23.640373 9.0842371Q23.71195 9.3699923 23.769421 9.6589155Q23.826893 9.9478378 23.870115 10.239233Q23.913342 10.530628 23.942217 10.823793Q23.97109 11.116959 23.985546 11.411186Q24 11.705416 24 12Z"/>
</svg>
