<?xml version="1.0" encoding="UTF-8"?>
<svg width="325px" height="83px" viewBox="0 0 325 83" version="1.1" xmlns="http://www.w3.org/2000/svg" xmlns:xlink="http://www.w3.org/1999/xlink">
    <title>Group</title>
    <defs>
        <rect id="path-1" x="0" y="0" width="325" height="83" rx="41.5"></rect>
        <filter x="-1.4%" y="-5.4%" width="102.8%" height="110.8%" filterUnits="objectBoundingBox" id="filter-2">
            <feGaussianBlur stdDeviation="4" in="SourceAlpha" result="shadowBlurInner1"></feGaussianBlur>
            <feOffset dx="0" dy="1" in="shadowBlurInner1" result="shadowOffsetInner1"></feOffset>
            <feComposite in="shadowOffsetInner1" in2="SourceAlpha" operator="arithmetic" k2="-1" k3="1" result="shadowInnerInner1"></feComposite>
            <feColorMatrix values="0 0 0 0 0   0 0 0 0 0   0 0 0 0 0  0 0 0 0.194883653 0" type="matrix" in="shadowInnerInner1"></feColorMatrix>
        </filter>
    </defs>
    <g id="Service-App" stroke="none" stroke-width="1" fill="none" fill-rule="evenodd">
        <g id="App-/-Pihenek-(offline)" transform="translate(-25, -549)">
            <g id="Group" transform="translate(25, 549)">
                <g id="Rectangle-Copy-4">
                    <use fill="#136449" fill-rule="evenodd" xlink:href="#path-1"></use>
                    <use fill="#136449" fill-opacity="1" filter="url(#filter-2)" xlink:href="#path-1"></use>
                </g>
                <rect id="Rectangle-Copy-5" stroke="#1CCA8F" fill="#13B981" x="5.89784946" y="4.96236559" width="203" height="73.0752688" rx="36.5376344"></rect>
                <g id="Pihenek" transform="translate(84.3274, 32.8548)" fill="#FFFFFF" fill-rule="nonzero">
                    <path d="M0,16.1452415 L0,0.872514205 L6.02556818,0.872514205 C7.18394886,0.872514205 8.17080966,1.0925071 8.98615057,1.5324929 C9.80149148,1.97247869 10.4241832,2.58149858 10.8542259,3.35955256 C11.2842685,4.13760653 11.4992898,5.0337358 11.4992898,6.04794034 C11.4992898,7.06214489 11.2805398,7.95703125 10.8430398,8.73259943 C10.4055398,9.50816761 9.77290483,10.1122159 8.94513494,10.5447443 C8.11736506,10.9772727 7.11683239,11.1935369 5.94353693,11.1935369 L2.10298295,11.1935369 L2.10298295,8.60582386 L5.42151989,8.60582386 C6.04296875,8.60582386 6.55628551,8.49769176 6.96147017,8.28142756 C7.36665483,8.06516335 7.66992188,7.7643821 7.87127131,7.37908381 C8.07262074,6.99378551 8.17329545,6.55007102 8.17329545,6.04794034 C8.17329545,5.54083807 8.07262074,5.09712358 7.87127131,4.71679687 C7.66992188,4.33647017 7.36541193,4.04066051 6.95774148,3.8293679 C6.55007102,3.61807528 6.03302557,3.51242898 5.40660511,3.51242898 L3.2290483,3.51242898 L3.2290483,16.1452415 L0,16.1452415 Z" id="Path"></path>
                    <path d="M13.5426136,16.1452415 L13.5426136,4.69069602 L16.7194602,4.69069602 L16.7194602,16.1452415 L13.5426136,16.1452415 Z M15.1459517,3.21413352 C14.6736506,3.21413352 14.2684659,3.05628551 13.9303977,2.74058949 C13.5923295,2.42489347 13.4232955,2.04580966 13.4232955,1.60333807 C13.4232955,1.16583807 13.5923295,0.789240057 13.9303977,0.473544034 C14.2684659,0.157848011 14.6711648,0 15.1384943,0 C15.615767,0 16.0221946,0.157848011 16.357777,0.473544034 C16.6933594,0.789240057 16.8611506,1.16583807 16.8611506,1.60333807 C16.8611506,2.04580966 16.6933594,2.42489347 16.357777,2.74058949 C16.0221946,3.05628551 15.6182528,3.21413352 15.1459517,3.21413352 Z" id="Shape"></path>
                    <path d="M22.4318182,9.52308239 L22.4318182,16.1452415 L19.2549716,16.1452415 L19.2549716,0.872514205 L22.3423295,0.872514205 L22.3423295,6.71164773 L22.4765625,6.71164773 C22.7350852,6.03551136 23.1526989,5.50479403 23.7294034,5.11949574 C24.306108,4.73419744 25.0294744,4.5415483 25.8995028,4.5415483 C26.6949574,4.5415483 27.3897372,4.71431108 27.9838423,5.05983665 C28.5779474,5.40536222 29.0403054,5.90003551 29.3709162,6.54385653 C29.701527,7.18767756 29.8643466,7.95703125 29.859375,8.85191761 L29.859375,16.1452415 L26.6825284,16.1452415 L26.6825284,9.41867898 C26.6875,8.71271307 26.5097656,8.16335227 26.1493253,7.77059659 C25.7888849,7.37784091 25.2855114,7.18146307 24.6392045,7.18146307 C24.2066761,7.18146307 23.8251065,7.2734375 23.4944957,7.45738636 C23.1638849,7.64133523 22.9053622,7.90855824 22.7189276,8.2590554 C22.5324929,8.60955256 22.4367898,9.03089489 22.4318182,9.52308239 Z" id="Path"></path>
                    <path d="M37.5852273,16.3689631 C36.4069602,16.3689631 35.3939986,16.1290838 34.5463423,15.6493253 C33.6986861,15.1695668 33.0461648,14.4884588 32.5887784,13.6060014 C32.131392,12.723544 31.9026989,11.678267 31.9026989,10.4701705 C31.9026989,9.29190341 32.131392,8.2578125 32.5887784,7.36789773 C33.0461648,6.47798295 33.6912287,5.78444602 34.5239702,5.28728693 C35.3567116,4.79012784 36.3348722,4.5415483 37.4584517,4.5415483 C38.2141335,4.5415483 38.9188565,4.66210937 39.5726207,4.90323153 C40.2263849,5.14435369 40.7981179,5.50603693 41.2878196,5.98828125 C41.7775213,6.47052557 42.1590909,7.07581676 42.4325284,7.80415483 C42.7059659,8.5324929 42.8426847,9.38387784 42.8426847,10.3583097 L42.8426847,11.2308239 L33.1704545,11.2308239 L33.1704545,9.26207386 L39.8522727,9.26207386 C39.8522727,8.8046875 39.7528409,8.39950284 39.5539773,8.04651989 C39.3551136,7.69353693 39.0804332,7.41637074 38.7299361,7.21502131 C38.3794389,7.01367187 37.9730114,6.91299716 37.5106534,6.91299716 C37.0284091,6.91299716 36.6020952,7.02361506 36.2317116,7.24485085 C35.8613281,7.46608665 35.571733,7.76189631 35.3629261,8.13227983 C35.1541193,8.50266335 35.0472301,8.9140625 35.0422585,9.36647727 L35.0422585,11.2382812 C35.0422585,11.8050426 35.1479048,12.2947443 35.3591974,12.7073864 C35.5704901,13.1200284 35.8700284,13.4382102 36.2578125,13.6619318 C36.6455966,13.8856534 37.1054688,13.9975142 37.637429,13.9975142 C37.9904119,13.9975142 38.3135653,13.9477983 38.6068892,13.8483665 C38.9002131,13.7489347 39.1512784,13.5997869 39.3600852,13.4009233 C39.568892,13.2020597 39.727983,12.9584517 39.837358,12.6700994 L42.7755682,12.8639915 C42.6264205,13.5699574 42.3219105,14.1851918 41.8620384,14.7096946 C41.4021662,15.2341974 40.8105469,15.6418679 40.0871804,15.932706 C39.3638139,16.223544 38.5298295,16.3689631 37.5852273,16.3689631 Z" id="Path"></path>
                    <path d="M48.0926847,9.52308239 L48.0926847,16.1452415 L44.9158381,16.1452415 L44.9158381,4.69069602 L47.9435369,4.69069602 L47.9435369,6.71164773 L48.0777699,6.71164773 C48.331321,6.04545455 48.756392,5.51722301 49.352983,5.12695312 C49.9495739,4.73668324 50.6729403,4.5415483 51.5230824,4.5415483 C52.3185369,4.5415483 53.0120739,4.71555398 53.6036932,5.06356534 C54.1953125,5.4115767 54.6551847,5.9074929 54.9833097,6.55131392 C55.3114347,7.19513494 55.4754972,7.96200284 55.4754972,8.85191761 L55.4754972,16.1452415 L52.2986506,16.1452415 L52.2986506,9.41867898 C52.3036222,8.71768466 52.1246449,8.16956676 51.7617188,7.77432528 C51.3987926,7.37908381 50.8991477,7.18146307 50.2627841,7.18146307 C49.8352273,7.18146307 49.4586293,7.2734375 49.1329901,7.45738636 C48.8073509,7.64133523 48.5537997,7.90855824 48.3723366,8.2590554 C48.1908736,8.60955256 48.0976563,9.03089489 48.0926847,9.52308239 Z" id="Path"></path>
                    <path d="M63.193892,16.3689631 C62.015625,16.3689631 61.0026634,16.1290838 60.1550071,15.6493253 C59.3073509,15.1695668 58.6548295,14.4884588 58.1974432,13.6060014 C57.7400568,12.723544 57.5113636,11.678267 57.5113636,10.4701705 C57.5113636,9.29190341 57.7400568,8.2578125 58.1974432,7.36789773 C58.6548295,6.47798295 59.2998935,5.78444602 60.1326349,5.28728693 C60.9653764,4.79012784 61.9435369,4.5415483 63.0671165,4.5415483 C63.8227983,4.5415483 64.5275213,4.66210937 65.1812855,4.90323153 C65.8350497,5.14435369 66.4067827,5.50603693 66.8964844,5.98828125 C67.3861861,6.47052557 67.7677557,7.07581676 68.0411932,7.80415483 C68.3146307,8.5324929 68.4513494,9.38387784 68.4513494,10.3583097 L68.4513494,11.2308239 L58.7791193,11.2308239 L58.7791193,9.26207386 L65.4609375,9.26207386 C65.4609375,8.8046875 65.3615057,8.39950284 65.162642,8.04651989 C64.9637784,7.69353693 64.689098,7.41637074 64.3386009,7.21502131 C63.9881037,7.01367187 63.5816761,6.91299716 63.1193182,6.91299716 C62.6370739,6.91299716 62.2107599,7.02361506 61.8403764,7.24485085 C61.4699929,7.46608665 61.1803977,7.76189631 60.9715909,8.13227983 C60.7627841,8.50266335 60.6558949,8.9140625 60.6509233,9.36647727 L60.6509233,11.2382812 C60.6509233,11.8050426 60.7565696,12.2947443 60.9678622,12.7073864 C61.1791548,13.1200284 61.4786932,13.4382102 61.8664773,13.6619318 C62.2542614,13.8856534 62.7141335,13.9975142 63.2460938,13.9975142 C63.5990767,13.9975142 63.9222301,13.9477983 64.215554,13.8483665 C64.5088778,13.7489347 64.7599432,13.5997869 64.96875,13.4009233 C65.1775568,13.2020597 65.3366477,12.9584517 65.4460227,12.6700994 L68.384233,12.8639915 C68.2350852,13.5699574 67.9305753,14.1851918 67.4707031,14.7096946 C67.010831,15.2341974 66.4192116,15.6418679 65.6958452,15.932706 C64.9724787,16.223544 64.1384943,16.3689631 63.193892,16.3689631 Z" id="Path"></path>
                    <path d="M73.403054,12.8490767 L73.4105114,9.03835227 L73.8728693,9.03835227 L77.5419034,4.69069602 L81.1885653,4.69069602 L76.259233,10.4477983 L75.5060369,10.4477983 L73.403054,12.8490767 Z M70.5245028,16.1452415 L70.5245028,0.872514205 L73.7013494,0.872514205 L73.7013494,16.1452415 L70.5245028,16.1452415 Z M77.6835938,16.1452415 L74.3128551,11.15625 L76.4307528,8.9115767 L81.4048295,16.1452415 L77.6835938,16.1452415 Z" id="Shape"></path>
                </g>
                <g id="Icon-/-Service-Copy-2" transform="translate(252.5, 28.5)" fill="#13B981" fill-rule="nonzero">
                    <g id="noun-mechanic-4519626">
                        <path d="M4.21875,8.859375 L4.21875,5.0625 C4.21875,4.59650974 4.59650974,4.21875 5.0625,4.21875 L8.78765625,4.21875 C9.67749648,4.2363746 10.4368778,3.57897255 10.546875,2.69578125 C10.5934445,2.22047735 10.4364343,1.74769835 10.1147793,1.39468197 C9.7931243,1.04166559 9.33694943,0.841474051 8.859375,0.843730803 L5.0625,0.843730803 C2.73254871,0.843730803 0.84375,2.73254871 0.84375,5.0625 L0.84375,8.78765625 C0.826125399,9.67749648 1.48352745,10.4368778 2.36671875,10.546875 C2.84202265,10.5934445 3.31480165,10.4364343 3.66781803,10.1147793 C4.02083441,9.7931243 4.22102595,9.33694943 4.21875,8.859375 Z" id="Path"></path>
                        <path d="M24.3042187,16.453125 C23.4210275,16.5631222 22.7636254,17.3225035 22.78125,18.2123438 L22.78125,21.9375 C22.78125,22.4034903 22.4034903,22.78125 21.9375,22.78125 L18.2123437,22.78125 C17.3225035,22.7636254 16.5631222,23.4210275 16.453125,24.3042188 C16.4065555,24.7795227 16.5635657,25.2523017 16.8852207,25.605318 C17.2068757,25.9583344 17.6630506,26.1585259 18.140625,26.1562692 L21.9375,26.1562692 C24.2674513,26.1562692 26.1562692,24.2674513 26.1562692,21.9375 L26.1562692,18.140625 C26.1585259,17.6630506 25.9583344,17.2068757 25.605318,16.8852207 C25.2523017,16.5635657 24.7795227,16.4065555 24.3042187,16.453125 Z" id="Path"></path>
                        <path d="M25.3125,4.21875 C24.3805195,4.21875 23.625,4.97426948 23.625,5.90625 C23.625,7.30422077 22.4917208,8.4375 21.09375,8.4375 C19.6957792,8.4375 18.5625,7.30422077 18.5625,5.90625 C18.5625,4.50827923 19.6957792,3.375 21.09375,3.375 C22.0257305,3.375 22.78125,2.61948052 22.78125,1.6875 C22.78125,0.755519485 22.0257305,0 21.09375,0 C19.0133083,0.000653511885 17.0866467,1.09581534 16.0217436,2.88305331 C14.9568404,4.67029128 14.9107727,6.88598119 15.9004687,8.7159375 L13.5,11.1121875 L11.1121875,13.5 L8.71171875,15.9004687 C6.8820694,14.9128573 4.66789997,14.9600282 2.88197192,16.0246662 C1.09604387,17.0893041 0.0014553202,19.0145697 0,21.09375 C0,22.0257305 0.755519485,22.78125 1.6875,22.78125 C2.61948052,22.78125 3.375,22.0257305 3.375,21.09375 C3.375,19.6957792 4.50827923,18.5625 5.90625,18.5625 C7.30422077,18.5625 8.4375,19.6957792 8.4375,21.09375 C8.4375,22.4917208 7.30422077,23.625 5.90625,23.625 C4.97426948,23.625 4.21875,24.3805195 4.21875,25.3125 C4.21875,26.2444805 4.97426948,27 5.90625,27 C7.98669175,26.9993465 9.91335326,25.9041847 10.9782564,24.1169467 C12.0431596,22.3297087 12.0892273,20.1140188 11.0995313,18.2840625 L13.5,15.8878125 L15.8878125,13.5 L18.2882813,11.0995313 C20.1179306,12.0871427 22.3321,12.0399718 24.1180281,10.9753338 C25.9039561,9.91069585 26.9985447,7.98543035 27,5.90625 C27,4.97426948 26.2444805,4.21875 25.3125,4.21875 Z" id="Path"></path>
                    </g>
                </g>
                <g id="Icon-/-Service-Copy-3" transform="translate(41.6718, 27.5)" fill="#FFFFFF" fill-rule="nonzero">
                    <g id="noun-midnight-6154038" transform="translate(0, 0)">
                        <path d="M0.554135946,20.1881853 C3.1422719,24.4161204 7.74697977,26.9893395 12.7041717,26.9779491 C13.1278914,26.9779491 13.5516112,26.9779491 13.9753309,26.9217556 C20.8438187,26.2596521 26.2800723,20.8233984 26.9421758,13.9549107 C27.4283696,8.56548705 24.8196289,3.36580601 20.2086056,0.533715717 C19.1027497,-0.149748458 17.7129651,-0.178746025 16.5795633,0.457996508 C15.4461616,1.09473904 14.7479614,2.29676179 14.7564046,3.59674994 C14.7311335,9.74459403 9.74464027,14.7174006 3.59674994,14.7257743 C2.29676179,14.7173311 1.09473904,15.4155313 0.457996508,16.548933 C-0.178746025,17.6823347 -0.149748458,19.0721193 0.533715717,20.1779752 L0.554135946,20.1881853 Z M3.61717017,17.7990186 C11.4601798,17.7821277 17.8092469,11.4193575 17.8092287,3.57632971 L17.8092287,3.57632971 C17.8099949,3.39220216 17.9098552,3.22275427 18.0705631,3.13288475 C18.2312709,3.04301523 18.4279215,3.04665112 18.5851974,3.14239987 L18.5851974,3.14239987 C22.2221178,5.36517848 24.2821841,9.45958508 23.8995618,13.7047629 C23.378165,19.0941117 19.1142697,23.3601465 13.7251831,23.8842466 C13.3933544,23.914877 13.0513156,23.9301969 12.7041717,23.9301969 C8.80808374,23.9337737 5.19192044,21.9060909 3.16282009,18.5800924 L3.16282009,18.5800924 C3.05877552,18.4221484 3.05057964,18.2196245 3.14152131,18.0537897 C3.23246298,17.8879549 3.40763722,17.7859888 3.59674994,17.7888085 L3.61717017,17.7990186 Z" id="Shape"></path>
                        <path d="M0.783863512,4.03578485 L2.24390983,4.76580801 L2.97393298,6.22585432 C3.07605997,6.42969892 3.28451969,6.55841848 3.5125165,6.55841848 C3.74051331,6.55841848 3.94897303,6.42969892 4.05110002,6.22585432 L4.78112318,4.76580801 L6.24116949,4.03578485 C6.4450141,3.93365786 6.57373365,3.72519814 6.57373365,3.49720133 C6.57373365,3.26920452 6.4450141,3.0607448 6.24116949,2.95861781 L4.78112318,2.22859466 L4.05110002,0.768548341 C3.94897303,0.564703737 3.74051331,0.43598418 3.5125165,0.43598418 C3.28451969,0.43598418 3.07605997,0.564703737 2.97393298,0.768548341 L2.24390983,2.22859466 L0.783863512,2.95861781 C0.580018908,3.0607448 0.451299351,3.26920452 0.451299351,3.49720133 C0.451299351,3.72519814 0.580018908,3.93365786 0.783863512,4.03578485 L0.783863512,4.03578485 Z" id="Path"></path>
                    </g>
                </g>
            </g>
        </g>
    </g>
</svg>