<?xml version="1.0" encoding="utf-8" ?>
<svg xmlns="http://www.w3.org/2000/svg" xmlns:xlink="http://www.w3.org/1999/xlink" width="238" height="94">
	<path fill="#FFFFFF" transform="translate(40 56.2096)" d="M8.9587307 22.790403C7.6434903 22.790403 6.4360561 22.627316 5.3364282 22.301136C4.2368007 21.974958 3.2449796 21.485691 2.3609653 20.833334C1.4769509 20.180977 0.68996245 19.391834 0 18.46591L2.7490692 15.435606C3.8055742 16.866583 4.840518 17.85564 5.8539 18.402779C6.8672824 18.949915 8.0100327 19.223484 9.2821512 19.223484C10.015236 19.223484 10.683638 19.113005 11.287354 18.892046C11.891071 18.671085 12.36542 18.365952 12.710402 17.976641C13.055383 17.587332 13.227874 17.140152 13.227874 16.635101C13.227874 16.277357 13.1578 15.945917 13.017651 15.640782C12.877502 15.335649 12.667279 15.062079 12.386982 14.820076C12.106685 14.578073 11.761703 14.351851 11.352038 14.141414C10.942373 13.930977 10.478805 13.752105 9.9613333 13.604798C9.443861 13.457492 8.8724861 13.320707 8.2472076 13.194445C7.0613346 12.962963 6.0263906 12.652567 5.1423764 12.263258C4.2583618 11.873948 3.5144961 11.389941 2.910779 10.811237C2.3070619 10.232533 1.8650547 9.5801764 1.5847574 8.854167C1.3044603 8.1281567 1.1643116 7.3021884 1.1643116 6.3762627C1.1643116 5.4503369 1.3745346 4.5980639 1.7949804 3.8194444C2.2154262 3.0408249 2.7921917 2.3674242 3.5252769 1.7992424C4.2583618 1.2310606 5.1100345 0.78914142 6.0802941 0.47348484C7.0505538 0.15782829 8.0962782 0 9.2174673 0C10.489585 0 11.626945 0.1473064 12.629547 0.44191918C13.632149 0.73653197 14.516163 1.1731902 15.28159 1.751894C16.047018 2.3305976 16.677687 3.030303 17.173597 3.8510101L14.392185 6.534091C13.960958 5.8817339 13.475829 5.3398571 12.936796 4.9084597C12.397762 4.4770622 11.815607 4.1508837 11.190329 3.9299242C10.56505 3.7089646 9.9074297 3.5984848 9.2174673 3.5984848C8.4412594 3.5984848 7.767468 3.7037036 7.1960926 3.9141414C6.6247177 4.124579 6.17732 4.4244528 5.8539 4.8137627C5.5304804 5.2030725 5.3687701 5.6712961 5.3687701 6.2184343C5.3687701 6.6393099 5.4657965 7.0128369 5.6598482 7.339015C5.8539 7.6651936 6.1288071 7.9545455 6.4845691 8.2070704C6.8403306 8.4595957 7.2985091 8.6805553 7.8591037 8.8699493C8.4196978 9.0593433 9.0557575 9.2276936 9.7672806 9.375C10.953154 9.6064816 12.020439 9.9168768 12.969138 10.306187C13.917836 10.695497 14.726386 11.15846 15.394787 11.695076C16.063189 12.231692 16.56988 12.841961 16.91486 13.525884C17.259842 14.209806 17.432333 14.972643 17.432333 15.814394C17.432333 17.266415 17.081961 18.513258 16.381218 19.554924C15.680474 20.59659 14.694044 21.396254 13.421926 21.953915C12.149807 22.511574 10.662076 22.790403 8.9587307 22.790403Z"/>
	<path fill="#FFFFFF" transform="translate(57.0698 61.6705)" d="M9.0880995 17.329546C7.2985091 17.329546 5.719142 16.961279 4.3499975 16.224747C2.9808533 15.488215 1.9135677 14.483376 1.1481407 13.210227C0.38271356 11.937079 0 10.479798 0 8.8383837C0 7.5336699 0.21561326 6.344697 0.6468398 5.2714648C1.0780663 4.1982322 1.6763932 3.2670455 2.4418201 2.4779041C3.2072473 1.6887627 4.1236038 1.0784932 5.1908894 0.64709598C6.2581749 0.21569866 7.4278769 0 8.699995 0C9.8211842 0 10.866908 0.21043772 11.837168 0.63131315C12.807428 1.0521885 13.648319 1.6256313 14.359843 2.3516414C15.071367 3.0776515 15.61579 3.9404461 15.993114 4.9400253C16.370438 5.9396043 16.548319 7.0286198 16.526756 8.2070704L16.494415 9.564394L2.6843851 9.564394L1.9405193 6.912879L13.16319 6.912879L12.645718 7.4494948L12.645718 6.7550507C12.581034 6.1026936 12.36542 5.5292506 11.998878 5.0347223C11.632336 4.5401936 11.163377 4.1508837 10.592002 3.8667929C10.020626 3.5827019 9.3899574 3.4406567 8.699995 3.4406567C7.6434903 3.4406567 6.7540855 3.6405723 6.0317812 4.0404038C5.3094769 4.4402356 4.7650533 5.0136786 4.3985105 5.7607322C4.0319681 6.5077863 3.8486967 7.4389729 3.8486967 8.5542927C3.8486967 9.6275253 4.0804811 10.563973 4.5440497 11.363636C5.007618 12.1633 5.6652384 12.77883 6.516911 13.210227C7.3685832 13.641624 8.3657942 13.857324 9.5085449 13.857324C10.306314 13.857324 11.039399 13.731061 11.7078 13.478536C12.376202 13.22601 13.098506 12.773569 13.874714 12.121212L15.847575 14.804293C15.265419 15.330387 14.602408 15.777567 13.858542 16.145834C13.114676 16.514099 12.333078 16.803452 11.513748 17.013889C10.694418 17.224327 9.8858681 17.329546 9.0880995 17.329546Z"/>
	<path fill="#FFFFFF" transform="translate(73.9456 61.702)" d="M0 16.982323L0 0.34722221L3.9133809 0.34722221L3.9780648 5.6502523L3.4282508 4.4507575C3.6654255 3.6090066 4.0750909 2.8514309 4.6572466 2.1780303C5.2394023 1.5046296 5.9131937 0.97327441 6.6786208 0.58396465C7.4440479 0.19465488 8.2472076 0 9.0880995 0C9.4546413 0 9.8050137 0.031565655 10.139214 0.094696969C10.473414 0.15782829 10.748322 0.23148148 10.963935 0.31565657L9.8966484 4.5770202C9.6594744 4.4507575 9.3683968 4.3455386 9.0234156 4.2613635C8.6784334 4.1771884 8.3334522 4.1351008 7.9884715 4.1351008C7.4494381 4.1351008 6.9373569 4.2350588 6.4522271 4.4349747C5.9670973 4.6348906 5.5412607 4.9137206 5.1747184 5.2714648C4.8081756 5.6292086 4.5224881 6.0448232 4.3176556 6.5183082C4.112823 6.9917932 4.0104065 7.5231481 4.0104065 8.1123734L4.0104065 16.982323L0 16.982323Z"/>
	<path fill="#FFFFFF" transform="translate(84.2884 62.0492)" d="M7.1799216 16.635101L0 0L4.3338265 0L9.1851254 12.436869L8.3442335 12.657828L13.454268 0L17.691069 0L10.155385 16.635101L7.1799216 16.635101Z"/>
	<path fill="#FFFFFF" transform="translate(101.585 54)" d="M0.58215582 24.684343L0.58215582 8.049242L4.5602207 8.049242L4.5602207 24.684343L0.58215582 24.684343ZM2.5226753 4.5138888C1.7249061 4.5138888 1.105018 4.3192339 0.66301078 3.9299242C0.22100359 3.5406144 0 2.9882154 0 2.2727273C0 1.5993266 0.22639392 1.0521885 0.67918175 0.63131315C1.1319697 0.21043772 1.7464675 0 2.5226753 0C3.3420055 0 3.9726744 0.19465488 4.4146814 0.58396465C4.856689 0.97327441 5.0776925 1.5361953 5.0776925 2.2727273C5.0776925 2.9250841 4.8512983 3.4617004 4.3985105 3.8825758C3.9457228 4.3034511 3.3204443 4.5138888 2.5226753 4.5138888Z"/>
	<path fill="#FFFFFF" transform="translate(106.914 61.702)" d="M8.4089174 17.297979C6.8133793 17.297979 5.3795509 16.919191 4.1074328 16.161615C2.8353145 15.40404 1.8327128 14.372895 1.0996276 13.068182C0.36654255 11.763468 0 10.290404 0 8.6489897C0 7.007576 0.36654255 5.5345116 1.0996276 4.2297978C1.8327128 2.9250841 2.8353145 1.8939394 4.1074328 1.1363636C5.3795509 0.37878788 6.8133793 0 8.4089174 0C9.9397717 0 11.330477 0.28409091 12.581034 0.85227275C13.831591 1.4204545 14.80185 2.2095959 15.491813 3.219697L13.292558 5.8080807C12.969138 5.3661618 12.559473 4.9663301 12.063562 4.6085858C11.567652 4.2508416 11.039399 3.9667509 10.478805 3.7563131C9.91821 3.5458753 9.3576155 3.4406567 8.7970209 3.4406567C7.8483229 3.4406567 7.0020409 3.666877 6.2581749 4.119318C5.5143094 4.5717592 4.9267631 5.1925507 4.4955363 5.9816918C4.0643101 6.7708335 3.8486967 7.6599326 3.8486967 8.6489897C3.8486967 9.6380472 4.0697002 10.521886 4.5117078 11.300505C4.9537148 12.079124 5.5520415 12.699916 6.3066878 13.162879C7.0613346 13.625842 7.902226 13.857324 8.8293629 13.857324C9.3899574 13.857324 9.9343815 13.767887 10.462634 13.589015C10.990886 13.410143 11.492187 13.152357 11.966537 12.815657C12.440886 12.478956 12.882893 12.058081 13.292558 11.55303L15.491813 14.172979C14.758728 15.098906 13.750736 15.85122 12.467837 16.429924C11.184938 17.008629 9.8319645 17.297979 8.4089174 17.297979Z"/>
	<path fill="#FFFFFF" transform="translate(121.17 61.6705)" d="M9.0880995 17.329546C7.2985091 17.329546 5.719142 16.961279 4.3499975 16.224747C2.9808533 15.488215 1.9135677 14.483376 1.1481407 13.210227C0.38271356 11.937079 0 10.479798 0 8.8383837C0 7.5336699 0.21561326 6.344697 0.6468398 5.2714648C1.0780663 4.1982322 1.6763932 3.2670455 2.4418201 2.4779041C3.2072473 1.6887627 4.1236038 1.0784932 5.1908894 0.64709598C6.2581749 0.21569866 7.4278769 0 8.699995 0C9.8211842 0 10.866908 0.21043772 11.837168 0.63131315C12.807428 1.0521885 13.648319 1.6256313 14.359843 2.3516414C15.071367 3.0776515 15.61579 3.9404461 15.993114 4.9400253C16.370438 5.9396043 16.548319 7.0286198 16.526756 8.2070704L16.494415 9.564394L2.6843851 9.564394L1.9405193 6.912879L13.16319 6.912879L12.645718 7.4494948L12.645718 6.7550507C12.581034 6.1026936 12.36542 5.5292506 11.998878 5.0347223C11.632336 4.5401936 11.163377 4.1508837 10.592002 3.8667929C10.020626 3.5827019 9.3899574 3.4406567 8.699995 3.4406567C7.6434903 3.4406567 6.7540855 3.6405723 6.0317812 4.0404038C5.3094769 4.4402356 4.7650533 5.0136786 4.3985105 5.7607322C4.0319681 6.5077863 3.8486967 7.4389729 3.8486967 8.5542927C3.8486967 9.6275253 4.0804811 10.563973 4.5440497 11.363636C5.007618 12.1633 5.6652384 12.77883 6.516911 13.210227C7.3685832 13.641624 8.3657942 13.857324 9.5085449 13.857324C10.306314 13.857324 11.039399 13.731061 11.7078 13.478536C12.376202 13.22601 13.098506 12.773569 13.874714 12.121212L15.847575 14.804293C15.265419 15.330387 14.602408 15.777567 13.858542 16.145834C13.114676 16.514099 12.333078 16.803452 11.513748 17.013889C10.694418 17.224327 9.8858681 17.329546 9.0880995 17.329546Z"/>
	<path fill="#FFFFFF" transform="translate(138.564 56.5884)" d="M0 22.095959L0 0L9.9936752 0C11.54609 0 12.861331 0.21569866 13.939398 0.64709598C15.017464 1.0784932 15.831404 1.6992846 16.381218 2.5094697C16.931032 3.3196549 17.205938 4.2929292 17.205938 5.4292932C17.205938 6.6919193 16.887909 7.7546296 16.25185 8.617424C15.61579 9.4802189 14.694044 10.058923 13.486609 10.353536L13.421926 9.753788C14.435308 9.9642258 15.313932 10.332492 16.057798 10.858586C16.801664 11.38468 17.378429 12.031776 17.788094 12.799873C18.19776 13.567971 18.402592 14.436027 18.402592 15.40404C18.402592 16.51936 18.20854 17.492634 17.820436 18.323864C17.432333 19.155092 16.871738 19.854797 16.138653 20.422979C15.405568 20.991161 14.548505 21.412037 13.567465 21.685606C12.586424 21.959175 11.502968 22.095959 10.317095 22.095959L0 22.095959ZM5.1747184 17.613636L10.123043 17.613636C10.72676 17.613636 11.238841 17.51894 11.659287 17.329546C12.079733 17.140152 12.408544 16.861322 12.645718 16.493055C12.882893 16.12479 13.00148 15.677609 13.00148 15.151515C13.00148 14.667508 12.877502 14.257154 12.629547 13.920455C12.381592 13.583755 12.03122 13.325968 11.578432 13.147096C11.125645 12.968224 10.586611 12.878788 9.9613333 12.878788L5.1747184 12.878788L5.1747184 17.613636ZM5.1747184 8.8699493L9.2174673 8.8699493C9.7780619 8.8699493 10.257801 8.7805138 10.656686 8.6016417C11.05557 8.4227695 11.357429 8.1702442 11.562262 7.8440657C11.767094 7.5178871 11.869511 7.1233163 11.869511 6.6603537C11.869511 5.9869528 11.632336 5.4555979 11.157987 5.066288C10.683638 4.6769781 9.9721136 4.4823232 9.0234156 4.4823232L5.1747184 4.4823232L5.1747184 8.8699493Z"/>
	<path fill="#FFFFFF" transform="translate(156.604 56.0833)" d="M11.772484 22.916666C10.047578 22.916666 8.4736013 22.632576 7.0505538 22.064394C5.6275063 21.496212 4.3877301 20.696548 3.3312249 19.665403C2.27472 18.63426 1.4553895 17.424242 0.87323374 16.035353C0.29107791 14.646464 0 13.120791 0 11.458333C0 9.7958755 0.29107791 8.2702017 0.87323374 6.8813133C1.4553895 5.492424 2.27472 4.2824073 3.3312249 3.2512627C4.3877301 2.2201178 5.6275063 1.4204545 7.0505538 0.85227275C8.4736013 0.28409091 10.036798 0 11.740142 0C13.443487 0 15.006683 0.28409091 16.429731 0.85227275C17.852777 1.4204545 19.092554 2.2201178 20.149059 3.2512627C21.205564 4.2824073 22.019505 5.492424 22.590879 6.8813133C23.162254 8.2702017 23.447943 9.7958755 23.447943 11.458333C23.447943 13.099748 23.162254 14.62016 22.590879 16.019571C22.019505 17.418982 21.205564 18.63426 20.149059 19.665403C19.092554 20.696548 17.852777 21.496212 16.429731 22.064394C15.006683 22.632576 13.454268 22.916666 11.772484 22.916666ZM11.740142 17.866161C12.624157 17.866161 13.438097 17.708334 14.181962 17.392677C14.925828 17.077021 15.572668 16.629841 16.122482 16.051136C16.672297 15.472433 17.098131 14.793771 17.39999 14.015152C17.701849 13.236532 17.852777 12.384259 17.852777 11.458333C17.852777 10.532408 17.701849 9.6801348 17.39999 8.901515C17.098131 8.1228952 16.672297 7.4442339 16.122482 6.8655305C15.572668 6.2868266 14.925828 5.8396463 14.181962 5.5239897C13.438097 5.2083335 12.624157 5.0505052 11.740142 5.0505052C10.856128 5.0505052 10.042188 5.2083335 9.2983217 5.5239897C8.5544567 5.8396463 7.902226 6.2868266 7.3416314 6.8655305C6.7810373 7.4442339 6.3552008 8.1228952 6.0641232 8.901515C5.7730451 9.6801348 5.6275063 10.532408 5.6275063 11.458333C5.6275063 12.384259 5.7730451 13.241793 6.0641232 14.030934C6.3552008 14.820076 6.7810373 15.498737 7.3416314 16.066919C7.902226 16.635101 8.5544567 17.077021 9.2983217 17.392677C10.042188 17.708334 10.856128 17.866161 11.740142 17.866161Z"/>
	<path fill="#FFFFFF" transform="translate(177.134 56.5884)" d="M16.170996 22.095959L9.1527834 12.184343L0.16170995 0L6.8565016 0L13.713003 9.7853537L22.865788 22.095959L16.170996 22.095959ZM0 22.095959L8.6353111 10.069445L13.066164 12.563131L6.3713717 22.095959L0 22.095959ZM14.230475 11.837121L9.8319645 9.4381313L16.170996 0L22.542366 0L14.230475 11.837121Z"/>
	<path fill="#929292" transform="translate(49 88)" d="M3.1323528 4.2797527C3.1323528 4.4683151 3.1133802 4.6421947 3.0754344 4.8013911C3.0374887 4.9605875 2.9842424 5.1035547 2.9156954 5.2302938C2.8471484 5.3570323 2.7645249 5.4683151 2.6678247 5.5641422C2.5711243 5.6599689 2.4621837 5.7403402 2.3410022 5.8052549C2.219821 5.8701701 2.0900714 5.9188561 1.9517534 5.951314C1.8134353 5.9837713 1.6549203 6 1.4762086 6L0.23501827 6C0.17871182 6 0.12546548 5.9760432 0.075279288 5.9281297C0.025093097 5.8802166 0 5.7959814 0 5.6754251L0 0.32457495C0 0.20401855 0.025093097 0.11978362 0.075279288 0.071870171C0.12546548 0.023956724 0.17871182 0 0.23501827 0L1.3146335 0C1.5986139 0 1.831184 0.03400309 2.0123439 0.10200927C2.1935039 0.17001545 2.3446746 0.26893353 2.4658558 0.39876354C2.5870371 0.52859348 2.6782291 0.6877898 2.7394319 0.87635237C2.8006344 1.0649149 2.8312359 1.2782071 2.8312359 1.5162288C2.8312359 1.6584235 2.8177712 1.7944359 2.7908421 1.9242659C2.7639129 2.0540957 2.7241311 2.1738794 2.6714969 2.2836168C2.6188624 2.3933539 2.5527637 2.4914992 2.4732001 2.5780525C2.3936367 2.6646059 2.3024447 2.7357032 2.1996241 2.7913446C2.3293738 2.8222566 2.4505551 2.8786707 2.563168 2.9605873C2.675781 3.0425038 2.7743173 3.1468315 2.858777 3.2735703C2.9432366 3.4003091 3.0099475 3.5486863 3.0589097 3.7187016C3.1078718 3.8887172 3.1323528 4.0757341 3.1323528 4.2797527ZM2.1812634 1.5950541C2.1812634 1.4497682 2.1653507 1.3183926 2.1335254 1.2009274C2.1016998 1.0834621 2.0515137 0.98377126 1.9829667 0.90185469C1.9144197 0.81993818 1.8250638 0.75734156 1.7148989 0.7140649C1.6047342 0.67078823 1.4590718 0.64914989 1.2779119 0.64914989L0.62426728 0.64914989L0.62426728 2.5919628L1.3440107 2.5919628C1.5080339 2.5919628 1.6402317 2.5649149 1.740604 2.5108192C1.8409765 2.4567235 1.9242121 2.3840804 1.990311 2.2928903C2.0564098 2.2017002 2.1047599 2.0950541 2.1353614 1.9729521C2.1659627 1.8508501 2.1812634 1.724884 2.1812634 1.5950541ZM2.4676919 4.3261204C2.4676919 4.1468315 2.4450469 3.9891808 2.3997569 3.8531685C2.3544669 3.7171562 2.288368 3.602782 2.2014604 3.5100465C2.1145525 3.4173107 2.0056117 3.3469861 1.874638 3.2990727C1.7436643 3.2511592 1.5790291 3.2272024 1.3807324 3.2272024L0.62426728 3.2272024L0.62426728 5.3415766L1.5423074 5.3415766C1.6867458 5.3415766 1.8128233 5.3199382 1.92054 5.2766614C2.0282567 5.2333851 2.1231208 5.1692429 2.2051325 5.0842347C2.2871439 4.999227 2.3514068 4.8933539 2.3979208 4.7666149C2.4444349 4.6398764 2.4676919 4.4930449 2.4676919 4.3261204Z"/>
	<path fill="#929292" transform="translate(71.9706 88)" d="M2.4754181 3.661562L2.4754181 5.8529863C2.4754181 5.8774886 2.469451 5.8989282 2.4575169 5.9173045C2.4455826 5.9356813 2.4246976 5.9502296 2.3948622 5.9609494C2.3650267 5.9716692 2.3247485 5.9808574 2.2740281 5.9885144C2.2233078 5.9961715 2.1621449 6 2.0905395 6C2.0159507 6 1.954042 5.9961715 1.9048133 5.9885144C1.8555846 5.9808574 1.8153067 5.9716692 1.7839793 5.9609494C1.7526519 5.9502296 1.7310212 5.9356813 1.719087 5.9173045C1.7071527 5.8989282 1.7011857 5.8774886 1.7011857 5.8529863L1.7011857 3.661562L0.063214071 0.3078101C0.030394964 0.23736601 0.01025597 0.18223584 0.0027970825 0.14241961C-0.0046618045 0.10260337 0.0027970825 0.071975499 0.025173744 0.050535988C0.047550406 0.029096479 0.087828398 0.015313935 0.14600772 0.0091883615C0.20418704 0.0030627872 0.28250533 0 0.38096264 0C0.4704693 0 0.54282051 0.0030627872 0.59801626 0.0091883615C0.65321201 0.015313935 0.69721949 0.0237366 0.73003858 0.034456354C0.76285768 0.045176111 0.78747201 0.060490046 0.80388153 0.080398165C0.8202911 0.10030628 0.83595479 0.12557428 0.85087252 0.15620214L1.651957 1.8652374C1.7265459 2.027565 1.8011347 2.1975498 1.8757236 2.3751915C1.9503125 2.5528331 2.0263932 2.7320061 2.1039655 2.9127107L2.1129162 2.9127107C2.1815379 2.7381318 2.2523973 2.5643184 2.3254945 2.3912711C2.3985915 2.2182236 2.4724345 2.0474732 2.5470235 1.8790199L3.3525832 0.16079633C3.3615339 0.13016845 3.3742139 0.10413476 3.3906236 0.082695253C3.4070332 0.061255742 3.4294097 0.045176111 3.4577537 0.034456354C3.4860973 0.0237366 3.5256295 0.015313935 3.5763497 0.0091883615C3.6270702 0.0030627872 3.6912167 0 3.7687891 0C3.8761971 0 3.9604826 0.0038284839 4.0216455 0.011485452C4.0828085 0.019142419 4.1253238 0.033690657 4.1491923 0.055130169C4.1730609 0.076569676 4.1812654 0.10719755 4.1738067 0.14701378C4.166348 0.18683001 4.1462088 0.24042879 4.1133895 0.3078101L2.4754181 3.661562Z"/>
	<path fill="#929292" transform="translate(116.868 88)" d="M3.1323528 4.2797527C3.1323528 4.4683151 3.1133802 4.6421947 3.0754344 4.8013911C3.0374887 4.9605875 2.9842424 5.1035547 2.9156954 5.2302938C2.8471484 5.3570323 2.7645249 5.4683151 2.6678247 5.5641422C2.5711243 5.6599689 2.4621837 5.7403402 2.3410022 5.8052549C2.219821 5.8701701 2.0900714 5.9188561 1.9517534 5.951314C1.8134353 5.9837713 1.6549203 6 1.4762086 6L0.23501827 6C0.17871182 6 0.12546548 5.9760432 0.075279288 5.9281297C0.025093097 5.8802166 0 5.7959814 0 5.6754251L0 0.32457495C0 0.20401855 0.025093097 0.11978362 0.075279288 0.071870171C0.12546548 0.023956724 0.17871182 0 0.23501827 0L1.3146335 0C1.5986139 0 1.831184 0.03400309 2.0123439 0.10200927C2.1935039 0.17001545 2.3446746 0.26893353 2.4658558 0.39876354C2.5870371 0.52859348 2.6782291 0.6877898 2.7394319 0.87635237C2.8006344 1.0649149 2.8312359 1.2782071 2.8312359 1.5162288C2.8312359 1.6584235 2.8177712 1.7944359 2.7908421 1.9242659C2.7639129 2.0540957 2.7241311 2.1738794 2.6714969 2.2836168C2.6188624 2.3933539 2.5527637 2.4914992 2.4732001 2.5780525C2.3936367 2.6646059 2.3024447 2.7357032 2.1996241 2.7913446C2.3293738 2.8222566 2.4505551 2.8786707 2.563168 2.9605873C2.675781 3.0425038 2.7743173 3.1468315 2.858777 3.2735703C2.9432366 3.4003091 3.0099475 3.5486863 3.0589097 3.7187016C3.1078718 3.8887172 3.1323528 4.0757341 3.1323528 4.2797527ZM2.1812634 1.5950541C2.1812634 1.4497682 2.1653507 1.3183926 2.1335254 1.2009274C2.1016998 1.0834621 2.0515137 0.98377126 1.9829667 0.90185469C1.9144197 0.81993818 1.8250638 0.75734156 1.7148989 0.7140649C1.6047342 0.67078823 1.4590718 0.64914989 1.2779119 0.64914989L0.62426728 0.64914989L0.62426728 2.5919628L1.3440107 2.5919628C1.5080339 2.5919628 1.6402317 2.5649149 1.740604 2.5108192C1.8409765 2.4567235 1.9242121 2.3840804 1.990311 2.2928903C2.0564098 2.2017002 2.1047599 2.0950541 2.1353614 1.9729521C2.1659627 1.8508501 2.1812634 1.724884 2.1812634 1.5950541ZM2.4676919 4.3261204C2.4676919 4.1468315 2.4450469 3.9891808 2.3997569 3.8531685C2.3544669 3.7171562 2.288368 3.602782 2.2014604 3.5100465C2.1145525 3.4173107 2.0056117 3.3469861 1.874638 3.2990727C1.7436643 3.2511592 1.5790291 3.2272024 1.3807324 3.2272024L0.62426728 3.2272024L0.62426728 5.3415766L1.5423074 5.3415766C1.6867458 5.3415766 1.8128233 5.3199382 1.92054 5.2766614C2.0282567 5.2333851 2.1231208 5.1692429 2.2051325 5.0842347C2.2871439 4.999227 2.3514068 4.8933539 2.3979208 4.7666149C2.4444349 4.6398764 2.4676919 4.4930449 2.4676919 4.3261204Z"/>
	<path fill="#929292" transform="translate(139.838 88)" d="M3.1323528 4.2797527C3.1323528 4.4683151 3.1133802 4.6421947 3.0754344 4.8013911C3.0374887 4.9605875 2.9842424 5.1035547 2.9156954 5.2302938C2.8471484 5.3570323 2.7645249 5.4683151 2.6678247 5.5641422C2.5711243 5.6599689 2.4621837 5.7403402 2.3410022 5.8052549C2.219821 5.8701701 2.0900714 5.9188561 1.9517534 5.951314C1.8134353 5.9837713 1.6549203 6 1.4762086 6L0.23501827 6C0.17871182 6 0.12546548 5.9760432 0.075279288 5.9281297C0.025093097 5.8802166 0 5.7959814 0 5.6754251L0 0.32457495C0 0.20401855 0.025093097 0.11978362 0.075279288 0.071870171C0.12546548 0.023956724 0.17871182 0 0.23501827 0L1.3146335 0C1.5986139 0 1.831184 0.03400309 2.0123439 0.10200927C2.1935039 0.17001545 2.3446746 0.26893353 2.4658558 0.39876354C2.5870371 0.52859348 2.6782291 0.6877898 2.7394319 0.87635237C2.8006344 1.0649149 2.8312359 1.2782071 2.8312359 1.5162288C2.8312359 1.6584235 2.8177712 1.7944359 2.7908421 1.9242659C2.7639129 2.0540957 2.7241311 2.1738794 2.6714969 2.2836168C2.6188624 2.3933539 2.5527637 2.4914992 2.4732001 2.5780525C2.3936367 2.6646059 2.3024447 2.7357032 2.1996241 2.7913446C2.3293738 2.8222566 2.4505551 2.8786707 2.563168 2.9605873C2.675781 3.0425038 2.7743173 3.1468315 2.858777 3.2735703C2.9432366 3.4003091 3.0099475 3.5486863 3.0589097 3.7187016C3.1078718 3.8887172 3.1323528 4.0757341 3.1323528 4.2797527ZM2.1812634 1.5950541C2.1812634 1.4497682 2.1653507 1.3183926 2.1335254 1.2009274C2.1016998 1.0834621 2.0515137 0.98377126 1.9829667 0.90185469C1.9144197 0.81993818 1.8250638 0.75734156 1.7148989 0.7140649C1.6047342 0.67078823 1.4590718 0.64914989 1.2779119 0.64914989L0.62426728 0.64914989L0.62426728 2.5919628L1.3440107 2.5919628C1.5080339 2.5919628 1.6402317 2.5649149 1.740604 2.5108192C1.8409765 2.4567235 1.9242121 2.3840804 1.990311 2.2928903C2.0564098 2.2017002 2.1047599 2.0950541 2.1353614 1.9729521C2.1659627 1.8508501 2.1812634 1.724884 2.1812634 1.5950541ZM2.4676919 4.3261204C2.4676919 4.1468315 2.4450469 3.9891808 2.3997569 3.8531685C2.3544669 3.7171562 2.288368 3.602782 2.2014604 3.5100465C2.1145525 3.4173107 2.0056117 3.3469861 1.874638 3.2990727C1.7436643 3.2511592 1.5790291 3.2272024 1.3807324 3.2272024L0.62426728 3.2272024L0.62426728 5.3415766L1.5423074 5.3415766C1.6867458 5.3415766 1.8128233 5.3199382 1.92054 5.2766614C2.0282567 5.2333851 2.1231208 5.1692429 2.2051325 5.0842347C2.2871439 4.999227 2.3514068 4.8933539 2.3979208 4.7666149C2.4444349 4.6398764 2.4676919 4.4930449 2.4676919 4.3261204Z"/>
	<path fill="#929292" transform="translate(162.809 88)" d="M5.2205882 2.9324324C5.2205882 3.403904 5.164938 3.8288288 5.0536375 4.2072072C4.9423375 4.5855856 4.7761388 4.9076576 4.5550423 5.1734233C4.3339458 5.439189 4.0564466 5.6433935 3.7225456 5.786036C3.3886445 5.9286785 2.9990933 6 2.5538919 6C2.1147068 6 1.7349318 5.9346848 1.4145674 5.8040543C1.0942028 5.6734233 0.82948846 5.4834833 0.62042427 5.2342343C0.41136009 4.9849849 0.25569001 4.6756759 0.153414 4.3063064C0.051138002 3.9369369 0 3.512012 0 3.0315316C0 2.572072 0.055650178 2.1546547 0.16695052 1.7792792C0.27825087 1.403904 0.44520143 1.0848348 0.6678021 0.82207209C0.89040285 0.5593093 1.1686537 0.3566066 1.5025548 0.21396397C1.8364558 0.071321324 2.226007 0 2.6712084 0C3.1013694 0 3.4758799 0.064564563 3.7947404 0.1936937C4.1136007 0.32282281 4.3790674 0.51126128 4.5911398 0.759009C4.8032117 1.0067568 4.9611382 1.313063 5.064918 1.677928C5.1686983 2.0427928 5.2205882 2.4609609 5.2205882 2.9324324ZM4.4038844 2.9864864C4.4038844 2.6561561 4.3745551 2.3490992 4.315897 2.0653152C4.2572384 1.7815316 4.1594748 1.5352852 4.0226054 1.3265766C3.885736 1.1178678 3.7029929 0.95495498 3.474376 0.83783782C3.245759 0.72072071 2.962996 0.66216218 2.6260867 0.66216218C2.2891777 0.66216218 2.0064144 0.72522521 1.7777976 0.85135138C1.5491806 0.97747749 1.3634293 1.1456456 1.2205437 1.3558558C1.0776582 1.566066 0.97538215 1.8115616 0.91371572 2.0923424C0.85204935 2.3731232 0.82121611 2.6681681 0.82121611 2.9774776C0.82121611 3.3198199 0.84979326 3.6351352 0.90694749 3.9234235C0.96410173 4.2117119 1.0603615 4.4602103 1.1957268 4.6689191C1.3310921 4.8776278 1.5123311 5.0397897 1.739444 5.1554055C1.9665569 5.2710209 2.2515762 5.3288288 2.5945015 5.3288288C2.9344189 5.3288288 3.22019 5.2657657 3.4518151 5.1396399C3.6834402 5.0135136 3.8699434 4.8430929 4.0113249 4.6283784C4.1527066 4.4136639 4.2534785 4.1651649 4.3136406 3.8828828C4.3738031 3.6006007 4.4038844 3.3018019 4.4038844 2.9864864Z"/>
	<path fill="#929292" transform="translate(186.824 88)" d="M4.1068311 5.6875958C4.1444502 5.7549772 4.1668773 5.8085756 4.1741114 5.848392C4.1813459 5.8882084 4.1719413 5.9196019 4.1458969 5.9425726C4.119853 5.9655437 4.0771694 5.9808574 4.0178471 5.9885144C3.9585242 5.9961715 3.8796685 6 3.7812796 6C3.6886783 6 3.6163335 5.9977031 3.5642452 5.9931087C3.512157 5.9885144 3.4709206 5.980092 3.4405358 5.9678407C3.410151 5.9555898 3.3870006 5.9410415 3.3710847 5.9241962C3.3551688 5.9073505 3.3414233 5.8851457 3.3298483 5.8575802L2.0797307 3.4915774L0.81659144 5.8575802C0.80212247 5.8851457 0.7862066 5.9081163 0.76884389 5.9264932C0.75148118 5.94487 0.72760737 5.9594183 0.69722259 5.9701376C0.66683781 5.9808574 0.62560129 5.9885144 0.57351303 5.9931087C0.52142483 5.9977031 0.45197386 6 0.36516017 6C0.26966506 6 0.19442654 5.9961715 0.13944452 5.9885144C0.084462501 5.9808574 0.046119783 5.9655437 0.024416355 5.9425726C0.0027129282 5.9196019 -0.0045215474 5.8882084 0.0027129282 5.848392C0.0099474043 5.8085756 0.032374278 5.7549772 0.069993548 5.6875958L1.6022555 2.9540582L0.13944452 0.31240427C0.10471904 0.24502297 0.082292162 0.19065849 0.072163895 0.14931087C0.062035628 0.10796325 0.068546653 0.07580398 0.091696978 0.052833077C0.1148473 0.029862175 0.15536036 0.015313935 0.21323617 0.0091883615C0.27111197 0.0030627872 0.3506912 0 0.45197386 0C0.53878754 0 0.60968542 0.0022970904 0.66466743 0.0068912711C0.71964943 0.011485452 0.76305628 0.019142419 0.79488802 0.029862175C0.8267197 0.04058193 0.84987003 0.055895865 0.86433893 0.07580398C0.8788079 0.095712095 0.89472377 0.11791731 0.91208649 0.14241961L2.1187971 2.366003L3.3168261 0.14241961C3.331295 0.11791731 3.3457642 0.095712095 3.3602331 0.07580398C3.374702 0.055895865 3.3956819 0.04058193 3.423173 0.029862175C3.450664 0.019142419 3.4890068 0.011485452 3.5382011 0.0068912711C3.5873957 0.0022970904 3.6539528 0 3.7378726 0C3.8275802 0 3.9006484 0.0038284839 3.9570773 0.011485452C4.0135059 0.019142419 4.0540195 0.033690657 4.0786166 0.055130169C4.1032138 0.076569676 4.1126184 0.10796325 4.1068311 0.14931087C4.1010432 0.19065849 4.0807867 0.24502297 4.0460615 0.31240427L2.5875909 2.9356816L4.1068311 5.6875958Z"/>
	<path fill="#929292" transform="translate(96.2222 12.5333)" d="M35.344002 0L2.256 0C1.0152 0 0 0.94 0 2.0888889C0 3.2377777 1.0152 4.1777778 2.256 4.1777778L35.344002 4.1777778C36.584801 4.1777778 37.599998 3.2377777 37.599998 2.0888889C37.599998 0.94 36.584801 0 35.344002 0Z"/>
	<path fill="#929292" transform="translate(101.444 0)" d="M23.80719 0L2.3039215 0C1.0367647 0 0 0.94 0 2.0888889C0 3.2377777 1.0367647 4.1777778 2.3039215 4.1777778L23.80719 4.1777778C25.074347 4.1777778 26.111111 3.2377777 26.111111 2.0888889C26.111111 0.94 25.074347 0 23.80719 0Z"/>
	<path fill="#13B981" transform="translate(91 24.0222)" d="M46.909031 15.364474L45.279194 5.4687109C44.75613 2.2977779 42.072582 0 38.88871 0L32.778709 0C32.073711 0 31.421774 0.32168889 30.989677 0.88081479L26.934032 6.1274076L20.058388 6.1274076L16.002743 0.88081479C15.570645 0.32168889 14.91871 0 14.21371 0L8.1037092 0C4.9274192 0 2.2362902 2.2977779 1.7208065 5.4687109L0.090967745 15.356814C0.030322582 15.709141 0 16.076786 0 16.436769C0 20.044281 2.9033871 22.977777 6.4738708 22.977777L40.526131 22.977777C44.096611 22.977777 47 20.044281 47 16.436769C47 16.076786 46.969677 15.7168 46.909031 15.356814L46.909031 15.364474ZM40.526131 18.389881L6.5193548 18.389881C5.9887094 18.389881 5.4732256 18.167763 5.1017742 17.7848C4.7379031 17.409496 4.5408063 16.926964 4.5481763 16.413792C4.5481763 16.314222 4.5559678 16.222311 4.5787096 16.12274L6.2085485 6.2269778C6.3601613 5.2848887 7.1637096 4.6032147 8.11129 4.6032147L13.106936 4.6032147L16.252903 8.6702814C17.268709 9.9800148 18.792419 10.730622 20.43742 10.730622L26.577742 10.730622C28.222742 10.730622 29.746452 9.9800148 30.762259 8.6702814L33.908226 4.6032147L38.90387 4.6032147C39.851452 4.6032147 40.647419 5.2848887 40.806614 6.2269778L42.436451 16.115082C42.451614 16.222311 42.466774 16.3372 42.466774 16.436769C42.466774 17.509068 41.602581 18.382223 40.54129 18.382223L40.526131 18.389881Z"/>
</svg>
